<svg width="18" height="18" viewBox="0 0 18 18" fill="none" xmlns="http://www.w3.org/2000/svg">
<g clip-path="url(#clip0_3886_100)">
<path d="M17.3523 15.1825L15.2881 10.7559C14.1483 12.4155 12.3686 13.5973 10.3086 13.9556L12.0366 17.6611C12.2575 18.1353 12.9412 18.1036 13.1192 17.614L14.0049 15.181L14.1874 15.0959L16.6204 15.9816C17.1086 16.1607 17.573 15.6548 17.3523 15.1825Z" fill="#0028FF"/>
<path d="M9.00056 0C5.44324 0 2.54883 2.89424 2.54883 6.45173C2.54883 10.0092 5.44328 12.9035 9.00056 12.9035C12.5579 12.9035 15.4523 10.0092 15.4523 6.45173C15.4523 2.89424 12.5579 0 9.00056 0ZM12.1398 5.97769L10.9958 7.09291L11.2661 8.66805C11.3488 9.14896 10.8421 9.51026 10.415 9.28628L9.0006 8.54279L7.58623 9.28624C7.15665 9.5118 6.65286 9.14625 6.73506 8.66802L7.00541 7.09288L5.86139 5.97765C5.5137 5.63868 5.70667 5.04696 6.18641 4.97725L7.76763 4.74757L8.47484 3.31485C8.68883 2.87975 9.31222 2.87937 9.52646 3.31485L10.2337 4.74757L11.8149 4.97725C12.2946 5.04693 12.4875 5.63868 12.1398 5.97769Z" fill="#0028FF"/>
<path d="M2.7126 10.7559L0.648366 15.1825C0.426705 15.657 0.895268 16.1602 1.38035 15.9815L3.81331 15.0958L3.99584 15.1809L4.88153 17.6139C5.0591 18.1025 5.74272 18.1362 5.9641 17.6611L7.6921 13.9556C5.63205 13.5973 3.85244 12.4155 2.7126 10.7559Z" fill="#0028FF"/>
</g>
<defs>
<clipPath id="clip0_3886_100">
<rect width="18" height="18" fill="white"/>
</clipPath>
</defs>
</svg>
