<svg width="17" height="17" viewBox="0 0 17 17" fill="none" xmlns="http://www.w3.org/2000/svg">
<g clip-path="url(#clip0_3886_91)">
<path d="M2.48258 10.8929C2.38635 11.0849 2.42383 11.3169 2.57545 11.4687L2.69724 11.5905C3.04911 11.1735 3.45922 10.7209 3.95662 10.2237C3.99177 10.1885 4.02796 10.1715 4.06324 10.1391L3.27972 9.35547C2.82421 10.1793 2.55859 10.7422 2.48258 10.8929Z" fill="#FF004A"/>
<path d="M6.77277 13.0422C6.27421 13.5407 5.82285 13.9516 5.4082 14.3037L5.57318 14.4687C5.72623 14.6218 5.96046 14.6586 6.15307 14.5595C6.41104 14.4266 6.81674 14.2357 7.67795 13.756L6.85747 12.9355C6.82504 12.971 6.80805 13.007 6.77277 13.0422Z" fill="#FF004A"/>
<path d="M6.50755 10.4899C6.14764 10.13 5.13546 10.4526 4.65998 10.928C3.06934 12.5186 2.35094 13.6464 2.02837 14.3123C1.9359 14.503 1.97442 14.7314 2.12435 14.8814C2.27454 15.0317 2.50334 15.0698 2.69425 14.9774C3.34522 14.6613 4.45921 13.9462 6.06878 12.3368C6.5916 11.8137 6.84957 10.832 6.50794 10.4903L6.50755 10.4899Z" fill="#FF004A"/>
<path d="M1.55455 6.6304L0.145886 8.03907C-0.0133854 8.19834 -0.0460698 8.4449 0.066769 8.64023C0.176884 8.83297 0.40749 8.93115 0.626942 8.87239C1.38828 8.66825 2.05818 8.582 2.50927 8.69769C3.15103 7.55672 3.84064 6.50641 4.57098 5.55234C4.14855 5.28153 2.75259 5.43237 1.55455 6.6304Z" fill="#FF004A"/>
<path d="M8.43033 16.9458C8.62216 17.0429 8.85445 17.0054 9.00633 16.8534L10.4151 15.4447C11.5058 14.3538 11.6977 12.9463 11.4503 12.5C10.3862 13.3019 9.30827 13.9791 8.30258 14.546C8.37197 14.9378 8.32579 15.318 8.16172 16.4282C8.12969 16.6431 8.24071 16.851 8.43033 16.9458Z" fill="#FF004A"/>
<path d="M9.88803 4.99555C9.30555 5.57816 9.30555 6.52588 9.88803 7.10849C10.4706 7.6911 11.4185 7.6911 12.0011 7.10849C12.5837 6.52588 12.5837 5.57816 12.0011 4.99555C11.4185 4.41294 10.4706 4.41294 9.88803 4.99555Z" fill="#FF004A"/>
<path d="M16.9704 0.485812C16.9525 0.239512 16.7564 0.044833 16.5109 0.0264156C15.2877 -0.0656711 14.0693 0.0847805 12.875 0.450015C12.9649 1.2705 13.3893 2.15842 14.1138 2.88292C14.847 3.61598 15.759 4.04023 16.5941 4.11961C16.9158 2.99239 17.0683 1.78514 16.9704 0.485812Z" fill="#FF004A"/>
<path d="M13.4102 3.58749C12.5814 2.75871 12.0753 1.76469 11.913 0.796875C8.92222 2.02345 6.05923 4.702 3.79688 8.46485L4.92085 9.58883C5.6888 9.27703 6.62109 9.19467 7.21239 9.78584C7.80447 10.3781 7.72055 11.3099 7.40888 12.0769L8.56982 13.2378C11.465 11.493 14.8356 8.74397 16.2689 5.08656C15.2775 4.93676 14.2525 4.42976 13.4102 3.58749ZM12.7057 7.8135C11.7349 8.7843 10.155 8.7843 9.18408 7.8135C8.21315 6.84257 8.21315 5.26257 9.18408 4.29176C10.155 3.32096 11.7349 3.32096 12.7057 4.29176C13.6766 5.2627 13.6766 6.84257 12.7057 7.8135Z" fill="#FF004A"/>
</g>
<defs>
<clipPath id="clip0_3886_91">
<rect width="17" height="17" fill="white"/>
</clipPath>
</defs>
</svg>
