<svg width="18" height="18" viewBox="0 0 18 18" fill="none" xmlns="http://www.w3.org/2000/svg">
<path d="M15.9509 6.92714C15.7554 4.66829 14.4183 2.5852 12.5452 1.33738C11.5187 0.653589 10.3294 0.233884 9.10874 0.0751196C5.74422 -0.362497 2.20075 1.11529 0.931461 4.42011C-0.159684 7.2612 0.916168 10.0817 2.87008 12.2328C3.57519 13.0091 3.67296 14.4686 3.67296 15.4518V17.4457C3.67296 17.7518 3.92113 18 4.22725 18H11.442C11.734 18 11.9754 17.7734 11.9951 17.482C12.0216 17.0898 12.0653 16.7449 12.0653 16.7449C12.2161 16.098 12.7677 15.5792 13.9408 15.7675C15.1715 15.965 15.9478 15.5982 16.0168 14.7788C16.0396 14.5085 16.0542 12.1995 16.0542 12.1995C16.113 12.166 16.4988 12.0892 17.0612 11.9614C17.4984 11.862 17.6524 11.3191 17.3336 11.0037C16.0551 9.73899 15.8836 9.1494 15.8519 9.02249C15.6936 8.39196 16.0082 7.58967 15.9509 6.92714ZM13.568 6.17229C13.3904 6.39732 13.188 6.44129 13.081 6.44717C13.0458 6.44911 13.0212 6.48264 13.0309 6.51658C13.0858 6.71017 13.1417 7.24337 12.1871 7.45099C11.2919 7.64555 10.7505 8.34187 10.397 8.69549C10.1255 8.96681 9.75812 9.0924 9.39165 9.17487C9.01727 9.2591 8.64633 9.33281 8.35095 9.59884C8.03986 9.87904 7.6011 11.4219 7.52663 11.6901C7.5201 11.7137 7.49866 11.7299 7.47419 11.7299H7.01475C6.98895 11.7299 6.96663 11.7118 6.9613 11.6866L6.73869 10.6335C6.72933 10.5893 4.5711 10.7669 4.40496 9.80354C4.39913 9.76975 4.36499 9.74878 4.33272 9.76043C4.12519 9.83531 3.45943 10.0195 3.10008 9.46272C2.84528 9.06793 2.91296 8.69934 2.94846 8.57207C2.95581 8.54572 2.94258 8.51831 2.91743 8.50749C2.73434 8.42875 2.07275 8.05781 2.16246 6.83737C2.23484 5.85361 2.90025 5.41758 2.80722 5.26629C2.53887 4.82991 2.77214 4.10655 3.32193 3.94508C3.34408 3.93858 3.35981 3.91897 3.3619 3.89597L3.3851 3.63953C3.46146 2.73532 4.64954 2.16229 5.45731 2.5382C5.48845 2.5527 5.52548 2.53726 5.53584 2.50453C5.63695 2.184 5.84104 2.09576 5.89542 2.06518C6.14586 1.92426 6.47107 1.94168 6.72995 2.04794C6.75089 2.05653 6.77475 2.05129 6.79019 2.03476C6.86375 1.95597 7.16536 1.70588 7.66486 1.70588C8.17721 1.70588 8.43766 1.95485 8.52871 2.02456C8.54545 2.03735 8.56795 2.03965 8.58671 2.03009C8.70198 1.97115 9.12283 1.7827 9.54418 1.92785C9.86236 2.03762 10.043 2.3272 10.0999 2.43259C10.112 2.45512 10.1375 2.46662 10.1624 2.46073C10.3135 2.42494 10.836 2.32459 11.275 2.52282C11.7389 2.73253 11.8836 3.03556 11.9205 3.13714C11.928 3.15782 11.9474 3.17167 11.9694 3.17256C12.07 3.17656 12.3476 3.20091 12.5191 3.34508C12.8221 3.59979 12.7925 3.80061 12.7576 3.88655C12.747 3.91273 12.7587 3.94273 12.7841 3.95517C12.9225 4.02302 13.3104 4.24714 13.551 4.72317C13.8822 5.37893 13.7497 5.94208 13.568 6.17229Z" fill="#FFB200"/>
</svg>
